<?xml version="1.0"?>
<svg width="1563" height="503" xmlns="http://www.w3.org/2000/svg" xmlns:svg="http://www.w3.org/2000/svg" enable-background="new 0 0 1563 503" version="1.1" xml:space="preserve">
 <g class="layer">
  <title>Layer 1</title>
  <path d="m1,229.47c0.66,-1.06 1.94,-1.7 1.89,-2.23c-0.86,-9.16 3.12,-17.02 7.07,-24.68c6.24,-12.13 12.51,-24.34 20.02,-35.69c3.51,-5.3 10,-8.6 15.07,-12.89c14.93,-12.62 32.79,-14.65 51.26,-13.86c6.31,0.28 12.86,1.14 18.75,3.27c4.12,1.49 7.6,5.3 10.86,8.56c19.96,19.95 39.82,40 59.6,60.12c4.59,4.67 4.59,10.46 2.35,16.61c-2.84,7.82 -7.83,10.53 -15.75,9.36c-6.49,-0.95 -13.02,-1.76 -19.56,-2.19c-6.42,-0.42 -12.76,0.02 -17.93,4.78c-6.61,6.09 -13.87,11.58 -19.82,18.24c-7.14,8.01 -10.83,18.19 -13.33,28.49c-1.14,4.7 -0.2,9.91 -0.2,15.13c8.75,2.04 17.11,-0.65 25.42,-2.89c10.07,-2.73 19.99,-6.01 30.02,-8.91c6.33,-1.82 9.77,-0.01 13.99,4.42c10.92,11.44 22.28,22.46 34.38,34.56c-0.43,-6.21 -0.71,-11.07 -1.12,-15.91c-0.95,-11.31 -2.14,-22.59 -2.93,-33.91c-0.86,-12.36 -1.81,-24.73 -1.96,-37.1c-0.54,-43.27 -1.06,-86.54 -0.79,-129.8c0.05,-7.86 3.3,-15.94 6.3,-23.43c1.05,-2.6 5.67,-4.82 8.93,-5.27c8.17,-1.15 15.89,0 22.15,6.75c6.37,6.86 13.71,12.82 20.25,19.54c12.83,13.19 25.98,26.15 37.84,40.18c5.75,6.79 8.91,15.8 9.21,25.18c0.16,5.14 0.03,10.29 0.03,16.05c5.33,-0.33 10.4,-0.26 15.34,-1.03c10.49,-1.62 18.32,2.92 26.39,9.02c13.53,10.21 25.77,21.7 37.51,33.81c9.95,10.25 20.44,20.05 29.59,30.98c5.76,6.87 10.53,15.03 13.9,23.35c7.72,19.01 13.59,38.69 17.66,58.82c2.19,10.88 4.01,21.85 5.54,32.84c1.63,11.68 3.32,23.42 3.82,35.18c0.27,6.39 -0.21,13.94 -3.43,18.99c-2.68,4.19 -9.65,6.2 -15.12,7.89c-5.51,1.7 -10.07,-0.81 -14.35,-5.21c-18.03,-18.59 -36.71,-36.56 -54.69,-55.18c-5.16,-5.34 -9.61,-11.75 -12.85,-18.41c-2.39,-4.93 -2.5,-11.04 -3.25,-16.67c-1.36,-10.19 -2.43,-20.41 -3.71,-31.45c-1.27,2.24 -2.24,4.01 -3.28,5.75c-11.77,19.73 -17.64,41.6 -23.04,63.64c-3.37,13.75 -6.46,27.57 -10.18,41.22c-1.65,6.09 -4.18,12.03 -7.02,17.67c-2.29,4.53 -14.7,5.53 -18.24,1.88c-9.27,-9.52 -18.34,-19.24 -27.74,-28.62c-11.29,-11.26 -22.91,-22.2 -34.26,-33.41c-2.27,-2.24 -3.96,-2.7 -6.06,-0.05c-3.53,4.45 -8.6,6.21 -13.73,8.06c-13.91,5.03 -28.14,7.85 -42.92,9.31c-9.77,0.97 -18.87,-1.3 -28.26,-2.12c-12.75,-1.1 -23.75,-7.72 -35.31,-12.38c-3.98,-1.6 -7.23,-5.36 -10.41,-8.53c-5.86,-5.85 -11.28,-12.16 -17.16,-17.99c-9.78,-9.71 -20.25,-18.77 -29.55,-28.91c-7.94,-8.65 -16.19,-17.64 -21.51,-27.93c-6.49,-12.56 -12.61,-25.79 -13.8,-40.42c-0.04,-0.53 -0.74,-1.01 -1.51,-1.28c-0.37,-10.12 -0.37,-20.48 -0.37,-31.3m386.52,87.46c-4.06,-18.53 -7.59,-37.2 -12.34,-55.56c-4.35,-16.83 -11.36,-32.67 -21.86,-46.77c-16.17,-21.71 -38.17,-26.83 -62.16,-14.51c-13.61,6.99 -24.83,16.77 -33.82,29.03c-5.26,7.18 -9.92,14.79 -15.26,22.82c-0.11,-2.11 -0.24,-3.68 -0.25,-5.26c-0.32,-42.66 -0.65,-85.31 -0.88,-127.97c-0.05,-7.99 -1.28,-15.58 -5.57,-22.46c-4.58,-7.35 -10,-10.13 -17.41,-8.91c-7.01,1.15 -11.44,5.5 -12.85,13.99c-1,6.04 -1.11,12.26 -1.3,18.41c-2.32,74.88 -0.34,149.64 6.83,224.23c1.34,13.86 6.41,26.56 14.68,37.76c4.92,6.67 13.13,6.35 17.46,-0.54c2,-3.17 3.39,-6.91 4.22,-10.58c2.28,-10.06 4.02,-20.24 6.16,-30.33c5.67,-26.82 13.21,-53.04 26,-77.45c4.78,-9.14 9.72,-18.25 18.55,-24.43c12.31,-8.62 23.32,-6.66 31.56,5.93c9.53,14.56 13.41,31.18 16.47,47.88c3.89,21.28 6.78,42.74 10.19,64.11c1.56,9.74 6.63,17.31 14.88,22.67c6.4,4.15 13.07,2.67 17.33,-3.7c3.3,-4.93 4.43,-10.37 3.82,-16.21c-1.42,-13.75 -2.88,-27.51 -4.45,-42.15m-236.85,9.29c6.86,-3.84 13.71,-7.75 17.83,-14.81c2.58,-4.42 2.19,-10.6 -0.55,-13.67c-3.6,-4.04 -7.73,-3.42 -12.31,-1.72c-20.31,7.51 -41.16,11.74 -62.99,11.14c-25.09,-0.69 -47.09,-17.93 -51.68,-42.59c-4.52,-24.27 0.41,-47.1 14.1,-67.69c7.16,-10.77 17.36,-18.64 30.14,-20.58c9.64,-1.46 19.84,-0.49 29.64,0.67c8.51,1.01 14.28,-3.5 12.64,-12.03c-0.54,-2.78 -1.99,-5.7 -3.84,-7.86c-8.73,-10.25 -20.66,-13.1 -33.35,-12.81c-28.01,0.65 -49.21,14.32 -65.05,36.45c-17.27,24.13 -22.3,51.49 -19.28,80.72c4.22,40.82 33.64,71.68 74.28,77.44c24.58,3.49 47.71,-1.42 70.42,-12.66z" fill="#FF1002" id="svg_2" opacity="1"/>
  <path d="m1564,383.54c-0.67,0.95 -1.76,1.32 -1.93,1.95c-2.36,8.69 -9.8,11.83 -16.84,15.26c-1.01,0.49 -3.07,-0.57 -4.35,-1.38c-14.32,-8.93 -25.53,-21.23 -36.77,-33.59c-8.23,-9.03 -16.77,-17.89 -25.97,-25.91c-12.39,-10.79 -17.85,-24.51 -20.22,-40.19c-1.49,-9.81 -4.06,-19.46 -5.63,-29.27c-1.45,-9.05 -2.44,-18.2 -3.24,-27.34c-1.49,-16.89 -2.89,-33.79 -3.94,-50.71c-0.49,-7.97 -0.11,-16 -0.11,-24c0,-9.66 -0.41,-19.35 0.13,-28.99c0.42,-7.63 1.11,-15.47 3.3,-22.72c2.42,-8.02 8.73,-13.7 16.27,-17.29c1.97,-0.93 5.17,0.05 7.59,0.82c8.04,2.59 13.31,8.92 19.04,14.62c8.13,8.1 16.35,16.12 24.55,24.15c7.18,7.02 15.47,13.24 21.25,21.26c4.55,6.32 7.59,14.66 8.51,22.43c1.39,11.83 0.11,23.96 0.42,35.95c0.42,16.04 0.69,32.12 2.1,48.1c1.68,19.08 4.44,38.07 6.84,57.09c1.92,15.21 3.96,30.4 6.1,45.57c0.21,1.48 1.46,2.82 2.56,3.94c0.34,3.07 0.34,6.43 0.34,10.25m-80,-221.07c-0.02,-12.5 0.03,-24.99 -0.09,-37.49c-0.03,-3.31 -0.26,-6.67 -0.94,-9.9c-1.32,-6.26 -5.67,-9.6 -11.75,-10.72c-6.12,-1.12 -11.11,0.55 -14.63,6.08c-5.07,7.98 -7.32,16.83 -7.57,26.08c-1.6,58.15 2.11,115.85 14.32,172.91c2.64,12.38 9.57,20.93 19,28.18c5.73,4.42 10.93,3.48 15.2,-2.46c4.61,-6.41 5.1,-13.54 3.45,-21.01c-11.01,-49.62 -15.15,-100.02 -16.99,-151.67z" fill="#FF1002" id="svg_3" opacity="1"/>
  <path d="m1103.53,1c0.94,0.97 1.18,2.17 1.9,2.89c9.97,10.05 19.94,20.1 30.03,30.02c6.26,6.16 12.81,12.02 19.06,18.18c3.29,3.23 6.31,6.75 9.28,10.29c0.75,0.89 1.21,2.38 1.14,3.56c-0.89,15.46 -2.18,30.91 -2.8,46.38c-0.47,11.64 -0.13,23.31 -0.14,34.97c-0.01,11.62 -8.06,19.34 -19.59,19.83c-8.4,0.36 -14.73,-2.57 -20.45,-8.53c-10.84,-11.29 -22.07,-22.2 -33.14,-33.27c-5.58,-5.59 -11.67,-10.77 -16.55,-16.91c-3.03,-3.8 -5.23,-8.89 -6.02,-13.7c-1.69,-10.34 -3.24,-20.89 -2.97,-31.31c0.28,-10.87 2.77,-21.69 4.29,-32.53c0.25,-1.79 0.63,-3.58 0.64,-5.37c0.01,-6.94 5.31,-10.67 9.12,-15.31c2.4,-2.93 4.87,-5.79 6.99,-8.94c6.03,-0.25 12.39,-0.25 19.21,-0.25m-15.48,5.15c-7.72,4.76 -12.68,11.63 -15.27,20.25c-4.94,16.47 -6.45,33.35 -5.11,50.4c0.57,7.22 2.13,14.49 4.23,21.43c2.34,7.75 7.79,10.15 15.67,8.15c4.92,-1.25 9.38,-3.67 11.05,-8.5c1.58,-4.56 2.76,-9.66 2.41,-14.4c-1.53,-21.07 -0.88,-41.95 3,-62.73c0.42,-2.28 0.68,-4.63 0.69,-6.95c0.02,-5.2 -2.43,-8.21 -7.62,-8.75c-2.71,-0.28 -5.53,0.51 -9.05,1.1z" fill="#FF1002" id="svg_4" opacity="1"/>
  <path d="m950.71,495.31c-7.84,-4.02 -12.91,-10.48 -18.62,-16.43c-12.29,-12.84 -25.1,-25.21 -38.16,-37.27c-6.53,-6.03 -10.46,-12.79 -10.94,-21.64c-0.96,-17.64 -1.92,-35.27 -3.04,-52.9c-0.43,-6.88 -1.06,-13.76 -2.06,-20.58c-0.37,-2.52 -1.57,-5.27 -3.24,-7.17c-4.19,-4.73 -8.87,-9.03 -13.34,-13.51c-5.14,-5.14 -5.94,-14.4 -1.95,-20.74c1.73,-2.76 2.96,-5.85 4.84,-8.49c1.93,-2.7 4.09,-5.41 6.68,-7.43c2.35,-1.83 3.87,-3.17 2.56,-6.42c-0.71,-1.75 -0.33,-3.93 -0.53,-5.9c-0.58,-5.63 -3.02,-9.23 -7.96,-13.07c-9.07,-7.07 -16.36,-16.41 -24.48,-24.72c-2.38,-2.43 -5.04,-4.58 -8.64,-6.31c0.39,2.46 1.04,4.91 1.12,7.38c0.43,13.75 0.44,27.53 1.13,41.27c0.57,11.32 2.03,22.6 2.78,33.91c0.24,3.56 -0.51,7.19 -0.87,10.79c-0.51,5.03 -1.07,10.06 -1.52,14.27c7.63,7.84 15.03,15.44 22.43,23.04c0.23,0.24 0.63,0.51 0.62,0.75c-0.35,8.31 -0.57,16.64 -1.27,24.92c-0.15,1.69 -2.13,3.21 -3.22,4.84c-3.6,5.35 -8.9,7.54 -15.07,6.08c-3.48,-0.82 -7.09,-1.43 -10.34,-2.83c-4.53,-1.94 -7.96,-0.58 -11.87,1.8c-11.38,6.92 -22.61,14.32 -34.67,19.85c-12.55,5.76 -25.84,10.11 -39.11,14.02c-10.68,3.16 -21.15,1.02 -31.57,-3.42c-7.26,-3.1 -12.37,-8.33 -17.68,-13.37c-16.41,-15.56 -32.4,-31.55 -48.56,-47.37c-1.29,-1.26 -2.61,-2.49 -4.28,-4.09c-12.57,17.8 -30.27,26.93 -50.74,31.4c-8.43,1.83 -16.89,4.3 -25.41,4.67c-6.64,0.29 -13.75,-1.28 -20.05,-3.64c-18.67,-6.99 -35.05,-17.58 -48.75,-32.4c-11.01,-11.9 -22.58,-23.34 -34.44,-34.41c-8.57,-8.01 -14.33,-17.81 -20.69,-27.4c-10.25,-15.47 -13.62,-33.24 -16.36,-50.68c-3.25,-20.75 1.63,-40.88 13.67,-58.6c4.5,-6.61 9.02,-13.65 15.05,-18.67c6.5,-5.43 14.68,-8.92 22.3,-12.9c10.25,-5.36 21.56,-7.06 32.83,-6.74c14.88,0.41 29.5,3.69 43.38,9.07c4.95,1.92 9.14,6.31 13.12,10.15c10.84,10.47 21.32,21.32 32.07,31.9c7.8,7.68 15.8,15.18 23.71,22.75c9.97,9.55 16.32,21.17 19.14,34.61c0.71,3.41 0.11,7.1 0.62,10.82c6.85,-8.65 12.57,-18.12 24.81,-21.56c-1.89,-2.03 -2.93,-3.22 -4.04,-4.33c-11.19,-11.2 -22.25,-22.54 -33.63,-33.54c-7.6,-7.35 -9.21,-15.86 -7.2,-25.87c1.39,-6.95 5.34,-11.94 9.88,-16.99c7.06,-7.86 14.22,-15.37 23.59,-20.65c11.76,-6.63 23.34,-13.61 34.77,-20.79c10.02,-6.3 21.38,-7.98 32.59,-9.61c19.4,-2.82 35.33,3.24 48.6,18.57c11.16,12.89 24.41,23.96 37.1,36.2c11.07,-14.15 27.52,-20.75 43.12,-27.92c12.88,-5.92 27.19,-8.7 40.81,-13.02c19.82,-6.29 40.2,-7.03 60.66,-5.78c5.82,0.36 11.64,2.92 17.18,5.15c9.2,3.69 17.39,9.16 24.44,16.17c17.59,17.52 35.02,35.2 52.72,52.62c9.59,9.44 14.47,20.94 17.4,33.84c2.73,12.02 2.46,24.14 1.54,36.07c-0.74,9.55 -3.33,19.3 -8.97,27.56c-7.82,11.46 -14.96,23.61 -24.21,33.81c-7.58,8.36 -17.85,14.27 -26.87,21.34c-6.78,5.3 -13.51,10.65 -20.14,16.14c-0.88,0.74 -1.45,2.44 -1.38,3.65c0.52,9.2 1.62,18.38 1.83,27.58c0.54,24.76 1.09,49.53 0.89,74.29c-0.08,9.46 -5.44,17.47 -13.06,22.66c-2.96,2.02 -8.62,0.83 -12.84,0.02c-2.83,-0.54 -5.29,-2.98 -8.21,-4.8m-105.08,-299.21c6.01,-2.87 11.93,-5.94 18.04,-8.57c21.82,-9.39 44.19,-16.5 68.28,-17.17c19.18,-0.52 30.93,5.87 35.37,20.33c2.8,9.1 2.19,18.23 -1.35,26.93c-9.67,23.76 -28.71,38.63 -49.7,51.55c-0.24,0.15 -0.64,0.02 -1.19,0.02c-0.25,-1.11 -0.58,-2.21 -0.73,-3.33c-2.05,-15.01 -4.18,-30.01 -6.07,-45.04c-1.34,-10.66 -6.92,-18.5 -15.43,-24.57c-5.07,-3.62 -10.59,-5.59 -16.23,-1.87c-5.88,3.87 -8.26,9.57 -7.27,16.82c3.4,24.76 6.51,49.55 9.93,74.3c0.41,3 -0.53,4.36 -2.77,6.07c-4.21,3.21 -8.5,6.54 -11.87,10.56c-8.51,10.17 -2.8,25.04 10.24,27.31c2.75,0.47 5.59,0.42 8.88,0.65c0.71,12.05 1.61,24.14 2.1,36.25c0.75,18.14 1.19,36.3 1.82,54.44c0.3,8.5 6.82,16.63 14.82,18.68c7.98,2.04 14.59,-0.68 18.74,-8.56c1.63,-3.1 2.62,-6.99 2.51,-10.47c-1.16,-34.45 -2.53,-68.9 -4.1,-103.33c-0.17,-3.7 0.79,-5.62 3.79,-7.62c10.52,-7.02 21.13,-13.99 31.12,-21.72c19.63,-15.2 35.97,-33.16 44.78,-56.98c8.05,-21.74 7.46,-43.45 -2.54,-64.09c-11.63,-24.02 -33.71,-32.3 -58.53,-33.39c-40.63,-1.78 -77.24,12.27 -111.99,31.61c-6.74,3.76 -12.37,10.08 -17.44,16.12c-5.06,6.02 -4.73,13.55 -0.83,20.22c3.49,5.98 9.88,5.51 15.69,4.86c2.89,-0.32 5.75,-1.67 8.43,-2.95c4.36,-2.08 8.56,-4.48 13.5,-7.06m-90.16,-63.1c-4.54,-2.33 -8.85,-5.41 -13.66,-6.86c-13.07,-3.95 -26.16,-2.43 -38.74,2.24c-30.83,11.43 -54.71,32.64 -76.72,56.13c-6.93,7.39 -6.11,16.51 0.55,22.81c7.17,6.77 14.97,6.38 23.15,-0.33c11.97,-9.82 23.89,-19.79 36.58,-28.61c8.67,-6.02 18.31,-10.93 28.08,-14.98c12.22,-5.06 18.49,-1.25 19.42,11.78c1.84,25.74 2.86,51.54 4.18,77.32c0.04,0.84 -0.38,1.71 -0.71,3.08c-12.45,-11.72 -27.19,-13.01 -42.47,-11.05c-36.26,4.66 -66.34,39.7 -66.03,76.68c0.13,14.94 3.64,28.96 14.49,39.85c14.61,14.66 32.26,16.01 50.95,9.65c23.18,-7.88 44.39,-19.65 64.25,-33.87c3.75,-2.68 6.94,-4.54 11.5,-1.45c2.39,1.61 5.58,2.15 8.49,2.83c9.1,2.15 15.2,-1.04 17.52,-10.05c1.08,-4.16 1.03,-8.96 0.16,-13.19c-2.11,-10.24 -10.19,-16.13 -17.97,-21.84c-3.37,-2.47 -4.46,-4.91 -4.29,-9.04c1.62,-41.21 -0.81,-82.26 -5.45,-123.21c-1.19,-10.53 -4.51,-20.13 -13.28,-27.89m-230.8,28.7c-9.13,0.04 -18.32,-0.58 -27.38,0.26c-31.88,2.97 -59.36,26.89 -67.46,57.73c-5.14,19.57 -2.62,38.64 2.94,57.59c6.36,21.65 18.44,39.2 38.14,50.62c40.33,23.39 95.84,6.94 117.07,-34.65c1.66,-3.26 1.75,-7.77 1.3,-11.55c-0.71,-5.98 -4.95,-9.07 -10.66,-7.43c-5.11,1.47 -10.35,3.79 -14.53,7.03c-11.55,8.98 -23.62,16.77 -37.99,20.31c-15.91,3.91 -31.21,3.41 -44.31,-7.93c-10.58,-9.15 -14.68,-21.2 -14.95,-35.2c1.82,0 2.98,0 4.14,-0.01c33.36,-0.13 64.46,-8.74 93.56,-24.9c14.96,-8.31 18.59,-19.1 11.68,-34.72c-0.87,-1.98 -1.84,-3.93 -2.94,-5.79c-10.79,-18.23 -27.6,-27.29 -48.61,-31.36m99.35,129.81c-3.42,2.02 -6.83,4.04 -10.44,6.17c4.05,3.85 7.61,7.24 11.26,10.71c2.25,-6.89 4.57,-13.98 7.16,-21.94c-3.04,1.91 -5.21,3.27 -7.98,5.06z" fill="#FF1002" id="svg_5" opacity="1"/>
  <path d="m1336.85,339c-14.5,0.67 -28.54,1.28 -42.57,2.04c-3.65,0.2 -6.24,1.36 -7.45,5.76c-6.69,24.47 -13.77,48.84 -20.81,73.22c-1.4,4.84 -3.4,9.52 -4.72,14.38c-5.21,19.14 -28.89,21.41 -40.08,9.37c-8.14,-8.75 -16.42,-17.38 -24.86,-25.84c-7.5,-7.51 -15.13,-14.92 -23.05,-21.98c-4.57,-4.06 -6.42,-9.2 -8.46,-14.62c-2.63,-7.01 -3.61,-13.72 -1.96,-21.21c4.69,-21.32 8.11,-42.93 13.4,-64.09c4.21,-16.86 9.93,-33.4 15.87,-49.76c7.78,-21.43 16.74,-42.44 24.64,-63.83c8.27,-22.43 19.27,-43.48 30.6,-64.43c5.11,-9.45 9.42,-19.33 14.1,-29.02c2.6,-5.38 7.04,-7.99 12.87,-7.92c3.33,0.04 5.9,-0.55 8.36,-3.14c4.12,-4.35 16.28,-4.24 20.55,-0.11c12.42,12.01 25.03,23.86 37.1,36.22c8.87,9.07 17.35,18.59 25.36,28.43c4.77,5.84 8.92,12.39 12.2,19.18c2.86,5.93 4.07,12.65 6.05,19c6.34,20.35 12.48,40.76 19.24,60.97c1.12,3.35 4.84,5.92 7.58,8.62c10.03,9.84 20.59,19.18 30.05,29.53c3.88,4.25 7.46,10.52 7.63,15.98c0.21,7.01 -2.3,14.59 -9.97,18.37c-2.9,1.42 -5.71,3.02 -9.26,4.91c2.76,5.75 5.51,11.25 8.06,16.84c3.5,7.71 6.87,15.48 10.25,23.25c5.85,13.42 11.87,26.8 15.04,41.19c0.52,2.35 0.57,5.04 -0.02,7.36c-1.42,5.5 -3.41,10.86 -5.05,16.31c-1.14,3.81 -3.93,4.6 -7.16,3.67c-7.91,-2.29 -14.75,-6.58 -20.56,-12.36c-20.07,-19.99 -40.24,-39.9 -59.99,-60.21c-4.11,-4.23 -6.9,-9.89 -9.73,-15.19c-1.79,-3.35 -3.44,-4.44 -7.31,-3.41c-5.03,1.33 -10.3,1.72 -15.94,2.52m-14.48,-68.14c1.31,-0.26 2.68,-0.36 3.92,-0.8c4.82,-1.69 7.3,-0.63 9.63,4.63c10.12,22.83 20.86,45.39 31.56,67.95c3.98,8.41 9.73,15.5 17.66,20.61c8.27,5.33 14.25,2.78 15.39,-7.07c1.35,-11.58 -0.19,-22.91 -4.84,-33.71c-8.61,-20.01 -17.17,-40.06 -25.92,-60.01c-1.27,-2.91 -0.39,-3.99 2,-5.44c3.55,-2.13 6.99,-4.54 10.1,-7.27c4.8,-4.23 6.32,-9.55 4.31,-15.83c-1.94,-6.03 -6.34,-8.98 -12.25,-9.38c-6.22,-0.42 -12.5,-0.09 -19.22,-0.09c-0.05,-0.11 -0.51,-0.8 -0.76,-1.57c-12.33,-36.76 -24.35,-73.64 -37.14,-110.24c-3.52,-10.08 -9.2,-19.43 -14.18,-28.96c-2.11,-4.04 -6.14,-5.13 -10.36,-4.03c-3.35,0.87 -6.5,2.47 -9.75,3.7c-1.36,0.5 -2.84,1.38 -4.14,1.2c-5.97,-0.85 -9.33,2.32 -12,7.02c-41.24,72.58 -70.42,149.88 -90.03,230.87c-3.76,15.51 -6.22,31.36 -8.81,47.13c-1.64,10 2.48,17.36 10.15,19.97c7.53,2.57 15.66,-0.92 20.1,-9.79c3.4,-6.78 6.05,-14.05 8.16,-21.35c7.07,-24.48 13.77,-49.06 20.55,-73.61c0.69,-2.5 1.67,-3.73 4.65,-4.04c30.14,-3.11 60.25,-6.46 91.22,-9.89z" fill="#FF1002" id="svg_6" opacity="1"/>
  <path d="m387.58,317.38c1.51,14.19 2.97,27.95 4.39,41.7c0.61,5.84 -0.52,11.28 -3.82,16.21c-4.26,6.37 -10.93,7.85 -17.33,3.7c-8.25,-5.36 -13.32,-12.93 -14.88,-22.67c-3.41,-21.37 -6.3,-42.83 -10.19,-64.11c-3.06,-16.7 -6.94,-33.32 -16.47,-47.88c-8.24,-12.59 -19.25,-14.55 -31.56,-5.93c-8.83,6.18 -13.77,15.29 -18.55,24.43c-12.79,24.41 -20.33,50.63 -26,77.45c-2.14,10.09 -3.88,20.27 -6.16,30.33c-0.83,3.67 -2.22,7.41 -4.22,10.58c-4.33,6.89 -12.54,7.21 -17.46,0.54c-8.27,-11.2 -13.34,-23.9 -14.68,-37.76c-7.17,-74.59 -9.15,-149.35 -6.83,-224.23c0.19,-6.15 0.3,-12.37 1.3,-18.41c1.41,-8.49 5.84,-12.84 12.85,-13.99c7.41,-1.22 12.83,1.56 17.41,8.91c4.29,6.88 5.52,14.47 5.57,22.46c0.23,42.66 0.56,85.31 0.88,127.97c0.01,1.58 0.14,3.15 0.25,5.26c5.34,-8.03 10,-15.64 15.26,-22.82c8.99,-12.26 20.21,-22.04 33.82,-29.03c23.99,-12.32 45.99,-7.2 62.16,14.51c10.5,14.1 17.51,29.94 21.86,46.77c4.75,18.36 8.28,37.03 12.4,56.01z" fill="#FFFCFC" id="svg_7" opacity="1"/>
  <path d="m150.35,326.4c-22.39,11.06 -45.52,15.97 -70.1,12.48c-40.64,-5.76 -70.06,-36.62 -74.28,-77.44c-3.02,-29.23 2.01,-56.59 19.28,-80.72c15.84,-22.13 37.04,-35.8 65.05,-36.45c12.69,-0.29 24.62,2.56 33.35,12.81c1.85,2.16 3.3,5.08 3.84,7.86c1.64,8.53 -4.13,13.04 -12.64,12.03c-9.8,-1.16 -20,-2.13 -29.64,-0.67c-12.78,1.94 -22.98,9.81 -30.14,20.58c-13.69,20.59 -18.62,43.42 -14.1,67.69c4.59,24.66 26.59,41.9 51.68,42.59c21.83,0.6 42.68,-3.63 62.99,-11.14c4.58,-1.7 8.71,-2.32 12.31,1.72c2.74,3.07 3.13,9.25 0.55,13.67c-4.12,7.06 -10.97,10.97 -18.15,14.99z" fill="#FFFCFB" id="svg_8" opacity="1"/>
  <path d="m1484.01,162.97c1.83,51.15 5.97,101.55 16.98,151.17c1.65,7.47 1.16,14.6 -3.45,21.01c-4.27,5.94 -9.47,6.88 -15.2,2.46c-9.43,-7.25 -16.36,-15.8 -19,-28.18c-12.21,-57.06 -15.92,-114.76 -14.32,-172.91c0.25,-9.25 2.5,-18.1 7.57,-26.08c3.52,-5.53 8.51,-7.2 14.63,-6.08c6.08,1.12 10.43,4.46 11.75,10.72c0.68,3.23 0.91,6.59 0.94,9.9c0.12,12.5 0.07,24.99 0.1,37.99z" fill="#FFFCFC" id="svg_9" opacity="1"/>
  <path d="m1088.42,6.01c3.15,-0.45 5.97,-1.24 8.68,-0.96c5.19,0.54 7.64,3.55 7.62,8.75c-0.01,2.32 -0.27,4.67 -0.69,6.95c-3.88,20.78 -4.53,41.66 -3,62.73c0.35,4.74 -0.83,9.84 -2.41,14.4c-1.67,4.83 -6.13,7.25 -11.05,8.5c-7.88,2 -13.33,-0.4 -15.67,-8.15c-2.1,-6.94 -3.66,-14.21 -4.23,-21.43c-1.34,-17.05 0.17,-33.93 5.11,-50.4c2.59,-8.62 7.55,-15.49 15.64,-20.39z" fill="#FFFBFB" id="svg_10" opacity="1"/>
  <path d="m845.29,196.26c-4.6,2.42 -8.8,4.82 -13.16,6.9c-2.68,1.28 -5.54,2.63 -8.43,2.95c-5.81,0.65 -12.2,1.12 -15.69,-4.86c-3.9,-6.67 -4.23,-14.2 0.83,-20.22c5.07,-6.04 10.7,-12.36 17.44,-16.12c34.75,-19.34 71.36,-33.39 111.99,-31.61c24.82,1.09 46.9,9.37 58.53,33.39c10,20.64 10.59,42.35 2.54,64.09c-8.81,23.82 -25.15,41.78 -44.78,56.98c-9.99,7.73 -20.6,14.7 -31.12,21.72c-3,2 -3.96,3.92 -3.79,7.62c1.57,34.43 2.94,68.88 4.1,103.33c0.11,3.48 -0.88,7.37 -2.51,10.47c-4.15,7.88 -10.76,10.6 -18.74,8.56c-8,-2.05 -14.52,-10.18 -14.82,-18.68c-0.63,-18.14 -1.07,-36.3 -1.82,-54.44c-0.49,-12.11 -1.39,-24.2 -2.1,-36.25c-3.29,-0.23 -6.13,-0.18 -8.88,-0.65c-13.04,-2.27 -18.75,-17.14 -10.24,-27.31c3.37,-4.02 7.66,-7.35 11.87,-10.56c2.24,-1.71 3.18,-3.07 2.77,-6.07c-3.42,-24.75 -6.53,-49.54 -9.93,-74.3c-0.99,-7.25 1.39,-12.95 7.27,-16.82c5.64,-3.72 11.16,-1.75 16.23,1.87c8.51,6.07 14.09,13.91 15.43,24.57c1.89,15.03 4.02,30.03 6.07,45.04c0.15,1.12 0.48,2.22 0.73,3.33c0.55,0 0.95,0.13 1.19,-0.02c20.99,-12.92 40.03,-27.79 49.7,-51.55c3.54,-8.7 4.15,-17.83 1.35,-26.93c-4.44,-14.46 -16.19,-20.85 -35.37,-20.33c-24.09,0.67 -46.46,7.78 -68.28,17.17c-6.11,2.63 -12.03,5.7 -18.38,8.73z" fill="#FFFCFC" id="svg_11" opacity="1"/>
  <path d="m755.75,133.23c8.49,7.53 11.81,17.13 13,27.66c4.64,40.95 7.07,82 5.45,123.21c-0.17,4.13 0.92,6.57 4.29,9.04c7.78,5.71 15.86,11.6 17.97,21.84c0.87,4.23 0.92,9.03 -0.16,13.19c-2.32,9.01 -8.42,12.2 -17.52,10.05c-2.91,-0.68 -6.1,-1.22 -8.49,-2.83c-4.56,-3.09 -7.75,-1.23 -11.5,1.45c-19.86,14.22 -41.07,25.99 -64.25,33.87c-18.69,6.36 -36.34,5.01 -50.95,-9.65c-10.85,-10.89 -14.36,-24.91 -14.49,-39.85c-0.31,-36.98 29.77,-72.02 66.03,-76.68c15.28,-1.96 30.02,-0.67 42.47,11.05c0.33,-1.37 0.75,-2.24 0.71,-3.08c-1.32,-25.78 -2.34,-51.58 -4.18,-77.32c-0.93,-13.03 -7.2,-16.84 -19.42,-11.78c-9.77,4.05 -19.41,8.96 -28.08,14.98c-12.69,8.82 -24.61,18.79 -36.58,28.61c-8.18,6.71 -15.98,7.1 -23.15,0.33c-6.66,-6.3 -7.48,-15.42 -0.55,-22.81c22.01,-23.49 45.89,-44.7 76.72,-56.13c12.58,-4.67 25.67,-6.19 38.74,-2.24c4.81,1.45 9.12,4.53 13.94,7.09m-53.77,143.74c-15.73,5.25 -27.63,15.14 -35.4,29.76c-3.49,6.56 -5.4,13.58 -3.76,21.19c1.64,7.58 5.63,10.65 13.25,8.94c20.1,-4.51 38.38,-13.03 54.72,-25.68c2.96,-2.29 3.48,-4.55 1.8,-7.64c-5.39,-9.94 -12.1,-18.8 -21.81,-24.86c-2.2,-1.37 -5.29,-1.31 -8.8,-1.71z" fill="#FFFCFC" id="svg_12" opacity="1"/>
  <path d="m525.11,161.75c20.57,4.02 37.38,13.08 48.17,31.31c1.1,1.86 2.07,3.81 2.94,5.79c6.91,15.62 3.28,26.41 -11.68,34.72c-29.1,16.16 -60.2,24.77 -93.56,24.9c-1.16,0.01 -2.32,0.01 -4.14,0.01c0.27,14 4.37,26.05 14.95,35.2c13.1,11.34 28.4,11.84 44.31,7.93c14.37,-3.54 26.44,-11.33 37.99,-20.31c4.18,-3.24 9.42,-5.56 14.53,-7.03c5.71,-1.64 9.95,1.45 10.66,7.43c0.45,3.78 0.36,8.29 -1.3,11.55c-21.23,41.59 -76.74,58.04 -117.07,34.65c-19.7,-11.42 -31.78,-28.97 -38.14,-50.62c-5.56,-18.95 -8.08,-38.02 -2.94,-57.59c8.1,-30.84 35.58,-54.76 67.46,-57.73c9.06,-0.84 18.25,-0.22 27.82,-0.21m6.02,51.89c4.29,-2.01 8.57,-4.02 12.86,-6.03c-3.62,-7.17 -6.91,-10.22 -12.82,-12.35c-21.22,-7.65 -49.82,1.81 -62.02,20.72c-1.81,2.8 -2.7,6.2 -4.1,9.55c12.53,1.8 47.13,-4.51 66.08,-11.89z" fill="#FFFCFC" id="svg_13" opacity="1"/>
  <path d="m1321.95,270.93c-30.55,3.36 -60.66,6.71 -90.8,9.82c-2.98,0.31 -3.96,1.54 -4.65,4.04c-6.78,24.55 -13.48,49.13 -20.55,73.61c-2.11,7.3 -4.76,14.57 -8.16,21.35c-4.44,8.87 -12.57,12.36 -20.1,9.79c-7.67,-2.61 -11.79,-9.97 -10.15,-19.97c2.59,-15.77 5.05,-31.62 8.81,-47.13c19.61,-80.99 48.79,-158.29 90.03,-230.87c2.67,-4.7 6.03,-7.87 12,-7.02c1.3,0.18 2.78,-0.7 4.14,-1.2c3.25,-1.23 6.4,-2.83 9.75,-3.7c4.22,-1.1 8.25,-0.01 10.36,4.03c4.98,9.53 10.66,18.88 14.18,28.96c12.79,36.6 24.81,73.48 37.14,110.24c0.25,0.77 0.71,1.46 0.76,1.57c6.72,0 13,-0.33 19.22,0.09c5.91,0.4 10.31,3.35 12.25,9.38c2.01,6.28 0.49,11.6 -4.31,15.83c-3.11,2.73 -6.55,5.14 -10.1,7.27c-2.39,1.45 -3.27,2.53 -2,5.44c8.75,19.95 17.31,40 25.92,60.01c4.65,10.8 6.19,22.13 4.84,33.71c-1.14,9.85 -7.12,12.4 -15.39,7.07c-7.93,-5.11 -13.68,-12.2 -17.66,-20.61c-10.7,-22.56 -21.44,-45.12 -31.56,-67.95c-2.33,-5.26 -4.81,-6.32 -9.63,-4.63c-1.24,0.44 -2.61,0.54 -4.34,0.87m-72.22,-56.67c-3.37,9.77 -6.73,19.55 -10.17,29.52c16.31,0.84 67.43,-5.39 78.64,-9.31c-11.5,-34.45 -23,-68.89 -34.5,-103.33c-0.36,-0.17 -0.73,-0.34 -1.09,-0.52c-10.88,27.63 -21.77,55.26 -32.88,83.64z" fill="#FFFDFC" id="svg_15" opacity="1"/>
  <path d="m702.4,276.87c3.09,0.5 6.18,0.44 8.38,1.81c9.71,6.06 16.42,14.92 21.81,24.86c1.68,3.09 1.16,5.35 -1.8,7.64c-16.34,12.65 -34.62,21.17 -54.72,25.68c-7.62,1.71 -11.61,-1.36 -13.25,-8.94c-1.64,-7.61 0.27,-14.63 3.76,-21.19c7.77,-14.62 19.67,-24.51 35.82,-29.86z" fill="#FF1204" id="svg_16" opacity="1"/>
  <path d="m530.77,213.78c-18.59,7.24 -53.19,13.55 -65.72,11.75c1.4,-3.35 2.29,-6.75 4.1,-9.55c12.2,-18.91 40.8,-28.37 62.02,-20.72c5.91,2.13 9.2,5.18 12.82,12.35c-4.29,2.01 -8.57,4.02 -13.22,6.17z" fill="#FF1406" id="svg_17" opacity="1"/>
  <path d="m1249.84,213.88c11,-28 21.89,-55.63 32.77,-83.26c0.36,0.18 0.73,0.35 1.09,0.52c11.5,34.44 23,68.88 34.5,103.33c-11.21,3.92 -62.33,10.15 -78.64,9.31c3.44,-9.97 6.8,-19.75 10.28,-29.9z" fill="#FF1203" id="svg_18" opacity="1"/>
 </g>
</svg>